<mxfile host="Electron" agent="Mozilla/5.0 (Windows NT 10.0; Win64; x64) AppleWebKit/537.36 (KHTML, like Gecko) draw.io/27.0.9 Chrome/134.0.6998.205 Electron/35.4.0 Safari/537.36" version="27.0.9">
  <diagram name="Page-1" id="WotBCveejjBw8KFbuiGU">
    <mxGraphModel dx="728" dy="501" grid="1" gridSize="10" guides="1" tooltips="1" connect="1" arrows="1" fold="1" page="1" pageScale="1" pageWidth="850" pageHeight="1100" math="0" shadow="0">
      <root>
        <mxCell id="0" />
        <mxCell id="1" parent="0" />
        <mxCell id="8ZstapJTI9yrxBLX2Mds-1" value="" style="image;aspect=fixed;html=1;points=[];align=center;fontSize=12;image=img/lib/azure2/compute/App_Services.svg;direction=south;" vertex="1" parent="1">
          <mxGeometry x="560" y="184" width="64" height="64" as="geometry" />
        </mxCell>
        <mxCell id="8ZstapJTI9yrxBLX2Mds-11" value="" style="image;aspect=fixed;html=1;points=[];align=center;fontSize=12;image=img/lib/azure2/storage/Storage_Accounts_Classic.svg;" vertex="1" parent="1">
          <mxGeometry x="460" y="260" width="60" height="48" as="geometry" />
        </mxCell>
        <mxCell id="8ZstapJTI9yrxBLX2Mds-12" value="" style="image;aspect=fixed;html=1;points=[];align=center;fontSize=12;image=img/lib/azure2/databases/SQL_Database.svg;" vertex="1" parent="1">
          <mxGeometry x="460" y="110" width="48" height="64" as="geometry" />
        </mxCell>
        <mxCell id="8ZstapJTI9yrxBLX2Mds-43" value="" style="shape=link;html=1;rounded=0;" edge="1" parent="1">
          <mxGeometry width="100" relative="1" as="geometry">
            <mxPoint x="360" y="285" as="sourcePoint" />
            <mxPoint x="360" y="135" as="targetPoint" />
          </mxGeometry>
        </mxCell>
        <mxCell id="8ZstapJTI9yrxBLX2Mds-44" value="" style="endArrow=classic;html=1;rounded=0;" edge="1" parent="1">
          <mxGeometry width="50" height="50" relative="1" as="geometry">
            <mxPoint x="360" y="135.3" as="sourcePoint" />
            <mxPoint x="450" y="135" as="targetPoint" />
            <Array as="points" />
          </mxGeometry>
        </mxCell>
        <mxCell id="8ZstapJTI9yrxBLX2Mds-45" value="" style="endArrow=classic;html=1;rounded=0;entryX=-0.072;entryY=0.507;entryDx=0;entryDy=0;entryPerimeter=0;" edge="1" parent="1">
          <mxGeometry width="50" height="50" relative="1" as="geometry">
            <mxPoint x="358" y="284.5" as="sourcePoint" />
            <mxPoint x="458.68000000000006" y="285.336" as="targetPoint" />
          </mxGeometry>
        </mxCell>
        <mxCell id="8ZstapJTI9yrxBLX2Mds-46" value="" style="endArrow=classic;html=1;rounded=0;" edge="1" parent="1">
          <mxGeometry width="50" height="50" relative="1" as="geometry">
            <mxPoint x="215" y="217" as="sourcePoint" />
            <mxPoint x="357" y="216" as="targetPoint" />
          </mxGeometry>
        </mxCell>
        <mxCell id="8ZstapJTI9yrxBLX2Mds-48" value="web-app-db" style="text;html=1;align=center;verticalAlign=middle;resizable=0;points=[];autosize=1;strokeColor=none;fillColor=none;" vertex="1" parent="1">
          <mxGeometry x="439" y="174" width="90" height="30" as="geometry" />
        </mxCell>
        <mxCell id="8ZstapJTI9yrxBLX2Mds-50" value="stgacc-74" style="text;html=1;align=center;verticalAlign=middle;resizable=0;points=[];autosize=1;strokeColor=none;fillColor=none;" vertex="1" parent="1">
          <mxGeometry x="450" y="308" width="80" height="30" as="geometry" />
        </mxCell>
        <mxCell id="8ZstapJTI9yrxBLX2Mds-51" value="web-app-01" style="text;html=1;align=center;verticalAlign=middle;resizable=0;points=[];autosize=1;strokeColor=none;fillColor=none;" vertex="1" parent="1">
          <mxGeometry x="548" y="248" width="90" height="30" as="geometry" />
        </mxCell>
        <mxCell id="8ZstapJTI9yrxBLX2Mds-52" value="" style="shape=mxgraph.networks2.icon;aspect=fixed;fillColor=#EDEDED;strokeColor=#000000;gradientColor=#5B6163;network2IconShadow=1;network2bgFillColor=none;network2Icon=mxgraph.networks2.laptop;network2IconW=1;network2IconH=0.5734;" vertex="1" parent="1">
          <mxGeometry x="54" y="180" width="104.64" height="60" as="geometry" />
        </mxCell>
        <mxCell id="8ZstapJTI9yrxBLX2Mds-53" value="" style="shape=image;verticalLabelPosition=bottom;labelBackgroundColor=default;verticalAlign=top;aspect=fixed;imageAspect=0;image=data:image/png,iVBORw0KGgoAAAANSUhEUgAAADAAAAAwCAYAAABXAvmHAAAACXBIWXMAAAsTAAALEwEAmpwYAAADv0lEQVR4nO2ZvWsUQRjGZ97VJogfaSSFQbC5bWyUYGMRsbWwsBObgIWFMWBmLid4gtGZBNTOzn9ABEHZGMzsLRo/Ck935hRUSBELQQIKIrkLEjMyG8479T5mde8L7oEpd+f57b4z88wMQn311VfH5FBxDKhY2sZfPXMfFA+jXhIQMQbUXwfqayctNty5ona94suUVzyFshpQNwuoGAcqNoz5cosAKu21ATmQ11tRd0ljTMRstXGoDRC11Nzqsuutjh+4pwc67RyhbLAFE3GrlnmoA/CrecWV1NzqBNIad8j8vQFMhFfPPDQDqIBk2m8+vbgLiHjSyDzYA3xsr/nMoyGgvmpmHmwB5oq6febP+/vMHG9jHloCYAYMD0cQC/fGNj8ZHAQiVmzNQ+IA194MYq4C4EoDU+uYyWl0+7Zj86gzKUaB+F/jmIdEAfibYeDybWS+qhkgNJ0famieiuNARCmWeSJKkM6dTgwAuFr803ylyU8Ok0dqPjeZOwPE/xHvy4t36LzYb55PDoDJz/UBNksKmLxYnVcgLWjcksFE3EF0YUf5HYkBYC4vNwQolxSTD9GVwm5MxPWY5tdMFvqzXzexMaA1xkxdsoEAJktwYTFOySwjIkZqdesmPY0Cl2eByx/NIZSG7HMNNNe4ZKh/F40HO+v157ZiIQMWngSmvlv9jct5Demg1lf/bsZIs77cVq3EDiscBS6/WUFcDTVkHlUDfEAkOGTTj9vSKMHDEeDyixWEadnnGhP/PpqYH7Ttwm0pABEjkAm+RF/YEgKz8L5Z0TsO4KQXjgIR36KSyAQarryyhgAuPyCuOldCQMXJaBBWD8opA5G3hzCTACu0fxADyZ2tGw3Suc1Zx/pPRAvfXXQjbMc0qjGm/qXmi5KBeFGKAwFMLUcRvZUAmPrTVlmG+g/RlNiNubweD0KuAVOtixJA/c9NzK8DFRdRNlsJc6xAY0FsxvM7iOeTD3NA/cf1s7v/yaF+7Tg9o85YRY/f/8Y7NFtINk4jujAMRLz9O/76gdmkN3rUYeFx4DLeuOCyBKyQ3IYm0sT8oDFcLhkzLtAJyy3lTDgKXH2NW1Ju8uuAxmZzji7M70FxNVM4CFytdBjgPzX7eh8wudS7AEbT+SFgUvUugBEr7AKuniQC4LX7aLGsbH4Ac+n9L0DKK051BiCCCLZgrm79E4AXHa+f69zxevWBAZeztgCprrrgqJLJQsDkRgOAbr1iqgi4HIsOybjSDpe9dclXlsPkMeDq/fabS0977pq1r75Qd+gnbk39qO0MuGMAAAAASUVORK5CYII=;" vertex="1" parent="1">
          <mxGeometry x="170" y="192" width="48" height="48" as="geometry" />
        </mxCell>
        <mxCell id="8ZstapJTI9yrxBLX2Mds-55" value="Publish" style="text;html=1;align=center;verticalAlign=middle;resizable=0;points=[];autosize=1;strokeColor=none;fillColor=none;" vertex="1" parent="1">
          <mxGeometry x="241" y="185" width="60" height="30" as="geometry" />
        </mxCell>
        <mxCell id="8ZstapJTI9yrxBLX2Mds-56" value="Local App" style="text;html=1;align=center;verticalAlign=middle;resizable=0;points=[];autosize=1;strokeColor=none;fillColor=none;" vertex="1" parent="1">
          <mxGeometry x="65" y="192" width="80" height="30" as="geometry" />
        </mxCell>
      </root>
    </mxGraphModel>
  </diagram>
</mxfile>
